<svg width="16" height="16" viewBox="0 0 16 16" fill="none" xmlns="http://www.w3.org/2000/svg">
<path d="M6.03578 8.03414C6.03578 6.93991 6.92258 6.05263 8.01681 6.05263C9.11104 6.05263 9.99833 6.93991 9.99833 8.03414C9.99833 9.12837 9.11104 10.0157 8.01681 10.0157C6.92258 10.0157 6.03578 9.12837 6.03578 8.03414ZM4.96461 8.03414C4.96461 9.71987 6.33108 11.0863 8.01681 11.0863C9.70255 11.0863 11.069 9.71987 11.069 8.03414C11.069 6.34841 9.70255 4.98194 8.01681 4.98194C6.33108 4.98194 4.96466 6.34831 4.96466 8.03414H4.96461ZM10.4766 4.86092C10.4766 5.002 10.5183 5.13992 10.5967 5.25725C10.675 5.37458 10.7864 5.46605 10.9167 5.52009C11.047 5.57413 11.1904 5.58831 11.3288 5.56084C11.4671 5.53337 11.5943 5.46549 11.6941 5.36578C11.7939 5.26606 11.8618 5.13899 11.8894 5.00064C11.917 4.86229 11.9029 4.71886 11.849 4.58851C11.7951 4.45815 11.7037 4.34671 11.5864 4.26829C11.4691 4.18986 11.3313 4.14798 11.1902 4.14792H11.1899C11.0008 4.14801 10.8195 4.22315 10.6857 4.35683C10.552 4.49052 10.4768 4.67182 10.4766 4.86092ZM5.61541 12.8725C5.03589 12.8461 4.7209 12.7496 4.51158 12.668C4.23406 12.56 4.03605 12.4313 3.82787 12.2234C3.61968 12.0155 3.49082 11.8177 3.38325 11.5402C3.30165 11.331 3.20512 11.0159 3.17878 10.4363C3.14996 9.8098 3.14421 9.62158 3.14421 8.03424C3.14421 6.44689 3.15044 6.2592 3.17878 5.63213C3.20517 5.0526 3.30241 4.73814 3.38325 4.52829C3.49129 4.25077 3.61997 4.05277 3.82787 3.84458C4.03577 3.6364 4.23359 3.50753 4.51158 3.39997C4.72081 3.31837 5.03589 3.22184 5.61541 3.19549C6.24197 3.16667 6.43018 3.16092 8.01681 3.16092C9.60345 3.16092 9.79185 3.16706 10.4189 3.19559C10.9985 3.22198 11.3129 3.31922 11.5228 3.40006C11.8003 3.50763 11.9983 3.63678 12.2065 3.84468C12.4147 4.05258 12.543 4.25087 12.6511 4.52839C12.7327 4.73762 12.8292 5.0527 12.8556 5.63222C12.8844 6.25929 12.8901 6.44698 12.8901 8.03433C12.8901 9.62168 12.8844 9.80937 12.8556 10.4364C12.8292 11.016 12.7322 11.331 12.6511 11.5403C12.543 11.8178 12.4144 12.0158 12.2065 12.2235C11.9986 12.4312 11.8003 12.5601 11.5228 12.6681C11.3135 12.7497 10.9985 12.8463 10.4189 12.8726C9.79238 12.9014 9.60416 12.9072 8.01681 12.9072C6.42947 12.9072 6.24178 12.9014 5.61541 12.8726V12.8725ZM5.5662 2.12609C4.93342 2.1549 4.50102 2.25524 4.12341 2.40217C3.73257 2.55391 3.40128 2.75749 3.07045 3.08779C2.73963 3.41808 2.53658 3.74943 2.38484 4.14074C2.2379 4.51859 2.13757 4.95075 2.10875 5.58353C2.07946 6.21731 2.07275 6.41993 2.07275 8.03414C2.07275 9.64836 2.07946 9.85098 2.10875 10.4848C2.13757 11.1176 2.2379 11.5497 2.38484 11.9275C2.53658 12.3184 2.73968 12.6503 3.07045 12.9805C3.40123 13.3107 3.7321 13.5139 4.12341 13.6661C4.50173 13.813 4.93342 13.9134 5.5662 13.9422C6.20031 13.971 6.4026 13.9782 8.01681 13.9782C9.63103 13.9782 9.83365 13.9715 10.4674 13.9422C11.1003 13.9134 11.5324 13.813 11.9102 13.6661C12.3011 13.5139 12.6324 13.3108 12.9632 12.9805C13.294 12.6502 13.4966 12.3184 13.6488 11.9275C13.7957 11.5497 13.8965 11.1175 13.9249 10.4848C13.9537 9.8505 13.9604 9.64836 13.9604 8.03414C13.9604 6.41993 13.9537 6.21731 13.9249 5.58353C13.8961 4.9507 13.7957 4.51835 13.6488 4.14074C13.4966 3.74991 13.2935 3.41861 12.9632 3.08779C12.6329 2.75696 12.3011 2.55391 11.9107 2.40217C11.5324 2.25524 11.1002 2.15443 10.4679 2.12609C9.83403 2.09713 9.63151 2.09009 8.01753 2.09009C6.40355 2.09009 6.20055 2.09679 5.56644 2.12609" fill="white"/>
</svg>
