<svg width="140" height="42" viewBox="0 0 140 42" fill="none" xmlns="http://www.w3.org/2000/svg">
<path d="M42.2339 30.7251V24.0108L43.4544 22.7781H48.7777V24.1157H43.74V30.6202H47.8299V27.827H45.35V26.568H49.2191V31.9578H43.4544L42.2339 30.7251Z" fill="white"/>
<path d="M50.666 31.9578V25.9254L51.9644 24.614H55.7816V25.9779H52.1721V31.9578H50.666Z" fill="white"/>
<path d="M56.635 30.6465V27.7614L61.5948 27.6302V25.9254H56.8947V24.614H61.8025L63.1009 25.9254V31.9578H57.9334L56.635 30.6465ZM58.1411 28.863V30.6727H61.5948V28.6007L58.1411 28.863Z" fill="white"/>
<path d="M64.55 31.9578V24.614H69.8474L71.1458 25.9254V31.9578H69.6396V25.9517H66.0561V31.9578H64.55Z" fill="white"/>
<path d="M72.6015 31.9578V24.614H74.1076V31.9578H72.6015ZM72.6015 23.7747V22.5945H74.1076V23.7747H72.6015Z" fill="white"/>
<path d="M75.5558 23.4338L77.0619 22.7781V24.8763H80.152V26.1877H77.0619V30.6465H80.152V31.9578H76.8541L75.5558 30.6465V23.4338Z" fill="white"/>
<path d="M81.0568 30.6727V25.8992L82.3292 24.614H87.4189V28.7056H82.5629V30.6465H87.1592V31.9578H82.3292L81.0568 30.6727ZM82.5629 27.7352L86.0556 27.604V25.873H82.5629V27.7352Z" fill="white"/>
<path d="M92.1658 30.7251V22.7781H93.672V30.594H97.645V22.7781H99.1511V30.7251L97.9306 31.9578H93.3863L92.1658 30.7251Z" fill="white"/>
<path d="M100.61 31.9578V22.7781H102.116V27.486H104.077L105.791 24.614H107.505L105.336 27.9974L107.622 31.9578H105.921L104.168 28.7974H102.116V31.9578H100.61Z" fill="white"/>
<path d="M108.446 31.9578V25.9254L109.745 24.614H113.562V25.9779H109.952V31.9578H108.446Z" fill="white"/>
<path d="M114.415 30.6465V27.7614L119.375 27.6302V25.9254H114.675V24.614H119.583L120.881 25.9254V31.9578H115.714L114.415 30.6465ZM115.921 28.863V30.6727H119.375V28.6007L115.921 28.863Z" fill="white"/>
<path d="M122.33 31.9578V24.614H123.836V31.9578H122.33ZM122.33 23.7747V22.5945H123.836V23.7747H122.33Z" fill="white"/>
<path d="M125.285 31.9578V24.614H130.582L131.88 25.9254V31.9578H130.374V25.9517H126.791V31.9578H125.285Z" fill="white"/>
<path d="M133.258 30.6727V25.8992L134.531 24.614H139.62V28.7056H134.764V30.6465H139.36V31.9578H134.531L133.258 30.6727ZM134.764 27.7352L138.257 27.604V25.873H134.764V27.7352Z" fill="white"/>
<path d="M16.5099 0.894531V13.1242H12.8526V6.90678L3.3438 12.0818V29.3905L12.8526 34.4254V22.8524H6.89655V19.6862H16.5099V41.1055L0 31.8179V10.3932L16.5099 0.894531Z" fill="white"/>
<path d="M24.2031 3.00533L20.5459 0.894531V41.1055L36.7423 31.8179V12.0818L33.503 10.3932V29.3905L24.2031 34.4254V3.00533Z" fill="white"/>
</svg>
