<svg width="48" height="49" viewBox="0 0 48 49" fill="none" xmlns="http://www.w3.org/2000/svg">
<g id="ic">
<path id="Vector" fill-rule="evenodd" clip-rule="evenodd" d="M24 46.6211C24 46.6211 42 34.6211 42 20.6211C42 15.8472 40.1036 11.2688 36.7279 7.89317C33.3523 4.51752 28.7739 2.62109 24 2.62109C19.2261 2.62109 14.6477 4.51752 11.2721 7.89317C7.89642 11.2688 6 15.8472 6 20.6211C6 34.6211 24 46.6211 24 46.6211ZM24 26.6211C27.3137 26.6211 30 23.9348 30 20.6211C30 17.3074 27.3137 14.6211 24 14.6211C20.6863 14.6211 18 17.3074 18 20.6211C18 23.9348 20.6863 26.6211 24 26.6211Z" fill="#9ACD32"/>
</g>
</svg>
