<svg width="16" height="16" viewBox="0 0 16 16" fill="none" xmlns="http://www.w3.org/2000/svg">
<path fill-rule="evenodd" clip-rule="evenodd" d="M14.9565 7.99998C14.9565 11.842 11.842 14.9565 7.99998 14.9565C4.158 14.9565 1.04346 11.842 1.04346 7.99998C1.04346 4.158 4.158 1.04346 7.99998 1.04346C11.842 1.04346 14.9565 4.158 14.9565 7.99998ZM8.24917 6.17956C7.56652 6.46128 6.21205 7.03558 4.18578 7.9241C3.86071 8.05413 3.68734 8.18416 3.66566 8.30335C3.63699 8.5136 3.90332 8.59742 4.26393 8.71091C4.3122 8.7261 4.36216 8.74182 4.41333 8.75845C4.77091 8.87765 5.24768 9.01851 5.4969 9.01851C5.72445 9.01851 5.97367 8.93183 6.2554 8.73678C8.15165 7.45817 9.12686 6.80803 9.19187 6.79719C9.23522 6.78636 9.28939 6.77552 9.33274 6.80803C9.37005 6.83601 9.36721 6.88808 9.3657 6.91585C9.36545 6.92035 9.36524 6.9242 9.36524 6.92722C9.34173 7.03696 8.39953 7.91227 7.84324 8.42907C7.63057 8.62665 7.4743 8.77183 7.44732 8.8018C7.39394 8.85666 7.33955 8.90869 7.28716 8.95879C6.95675 9.27478 6.70639 9.51422 7.29563 9.90704C7.6128 10.1146 7.85938 10.2823 8.11214 10.4543C8.33432 10.6054 8.56127 10.7597 8.84513 10.9473C8.92809 11.0003 9.00763 11.0557 9.08529 11.1099C9.3728 11.3103 9.63472 11.493 9.95037 11.4674C10.1346 11.4457 10.3296 11.2723 10.4271 10.7522C10.6655 9.52779 11.1098 6.85137 11.2182 5.75696C11.229 5.65944 11.2182 5.54025 11.2073 5.48607C11.1965 5.43189 11.1748 5.35604 11.1098 5.30186C11.0231 5.23685 10.8931 5.22601 10.8389 5.22601C10.5788 5.23685 10.1779 5.37771 8.24917 6.17956Z" fill="white"/>
</svg>
