<svg width="16" height="16" viewBox="0 0 16 16" fill="none" xmlns="http://www.w3.org/2000/svg">
<path d="M13.1367 2.40116C12.7904 2.08112 11.3881 1.06628 8.26679 1.05365C8.26679 1.05365 4.5837 0.830474 2.77595 2.47274C1.77493 3.47073 1.42436 4.92772 1.38635 6.73421C1.34834 8.5407 1.30188 11.9263 4.57526 12.8443V14.2465C4.57526 14.2465 4.57526 14.815 4.93005 14.9287C5.38199 15.0719 5.64808 14.6381 6.08312 14.1749C6.31965 13.9181 6.6491 13.5433 6.89408 13.257C8.28673 13.3867 9.69133 13.2842 11.0502 12.9538C11.5021 12.8064 14.0617 12.4821 14.4799 9.09234C14.9234 5.60147 14.2856 3.39494 13.1367 2.40116ZM13.5169 8.84389C13.1621 11.6694 11.0882 11.8463 10.7081 11.9684C9.53889 12.2557 8.33188 12.3595 7.1306 12.2758C7.1306 12.2758 5.71143 13.9602 5.26794 14.4234C5.24327 14.4524 5.21202 14.4752 5.17677 14.4899C5.14152 14.5045 5.10328 14.5106 5.06521 14.5076C4.98918 14.4866 4.96806 14.3981 4.96806 14.2676C4.96806 14.137 4.96806 11.9389 4.96806 11.9389C2.1973 11.1683 2.35781 8.28805 2.3916 6.78053C2.42539 5.27301 2.70837 4.035 3.55312 3.20123C5.06943 1.83268 8.1992 2.0348 8.1992 2.0348C10.839 2.0348 12.1061 2.83909 12.3976 3.10438C13.3817 3.93815 13.8759 5.92571 13.5169 8.84389Z" fill="white"/>
<path fill-rule="evenodd" clip-rule="evenodd" d="M8.48015 5.26949C8.66591 5.26035 8.8515 5.29083 9.02454 5.35892C9.19759 5.42701 9.35414 5.53117 9.4837 5.66447C9.61327 5.79778 9.71286 5.95718 9.77578 6.13204C9.8387 6.30691 9.86347 6.49317 9.84843 6.67838C9.83508 6.84278 9.69098 6.96523 9.52658 6.95187C9.36218 6.93852 9.23973 6.79442 9.25308 6.63002C9.26123 6.52979 9.24782 6.42896 9.21375 6.33427C9.17968 6.23956 9.1257 6.15313 9.05537 6.08078C8.98504 6.00842 8.89997 5.95179 8.80583 5.91474C8.71168 5.8777 8.61065 5.86109 8.5095 5.86607C8.34476 5.87418 8.20464 5.7472 8.19654 5.58245C8.18843 5.41771 8.31541 5.27759 8.48015 5.26949Z" fill="white"/>
<path fill-rule="evenodd" clip-rule="evenodd" d="M7.94696 4.61705C7.95109 4.45216 8.08811 4.32184 8.253 4.32597C8.94751 4.34337 9.60839 4.62857 10.0966 5.12189C10.0995 5.12485 10.1024 5.12788 10.1052 5.13096C10.3299 5.37784 10.5029 5.667 10.6141 5.9815C10.7253 6.296 10.7724 6.6295 10.7527 6.96243C10.7429 7.12708 10.6015 7.25265 10.4369 7.24289C10.2722 7.23313 10.1466 7.09174 10.1564 6.92708C10.1714 6.67376 10.1356 6.41998 10.0509 6.1806C9.96699 5.94318 9.83673 5.72465 9.66762 5.53759C9.28858 5.15688 8.77646 4.93658 8.23804 4.92309C8.07315 4.91896 7.94283 4.78194 7.94696 4.61705Z" fill="white"/>
<path fill-rule="evenodd" clip-rule="evenodd" d="M7.90944 3.41218C8.40463 3.40108 8.89705 3.48893 9.35769 3.67058C9.81833 3.85224 10.2379 4.12403 10.5916 4.46997C10.5934 4.47177 10.5953 4.47359 10.597 4.47544C10.9635 4.85287 11.2488 5.30103 11.4355 5.79245C11.6221 6.28386 11.706 6.80814 11.6821 7.3331C11.6747 7.49787 11.535 7.62537 11.3702 7.61787C11.2055 7.61038 11.078 7.47073 11.0855 7.30596C11.1056 6.86253 11.0347 6.41966 10.8771 6.00449C10.7199 5.59053 10.4797 5.21278 10.1712 4.8943C9.87506 4.60538 9.524 4.37824 9.13857 4.22624C8.75193 4.07377 8.33856 4.00001 7.92283 4.00933C7.75793 4.01303 7.62125 3.88235 7.61755 3.71745C7.61386 3.55255 7.74454 3.41587 7.90944 3.41218Z" fill="white"/>
<path d="M8.53282 9.01233C8.60282 9.01753 8.67312 9.00741 8.73878 8.98268C8.80445 8.95795 8.86389 8.9192 8.91296 8.86916L9.17483 8.5407C9.26449 8.44233 9.38611 8.37868 9.51824 8.36096C9.65037 8.34324 9.78454 8.3726 9.89708 8.44385C10.1212 8.57272 10.3383 8.71328 10.5475 8.86494C10.746 9.01232 11.1473 9.34499 11.1473 9.3492C11.2418 9.42542 11.3049 9.5337 11.3243 9.65334C11.3438 9.77297 11.3184 9.89557 11.2529 9.99769C11.1092 10.2466 10.9267 10.4712 10.7123 10.663C10.5575 10.8031 10.3653 10.8953 10.159 10.9283C10.1324 10.9329 10.1053 10.9329 10.0787 10.9283C9.99996 10.9295 9.92154 10.9181 9.8464 10.8946C9.31997 10.7132 8.81335 10.479 8.33431 10.1956C7.88843 9.95171 7.46449 9.66994 7.06719 9.35341C6.8676 9.19597 6.67722 9.02726 6.49699 8.8481H6.47587C6.29725 8.66594 6.12808 8.47479 5.96903 8.27541C5.65296 7.87828 5.37041 7.45575 5.12428 7.01213C4.83996 6.53519 4.60639 6.02994 4.42737 5.50461C4.40242 5.42847 4.38959 5.3489 4.38936 5.2688C4.38681 5.24219 4.38681 5.2154 4.38936 5.18879C4.42185 4.98411 4.51444 4.79362 4.65545 4.64137C4.81792 4.39608 5.01902 4.17853 5.251 3.9971C5.35407 3.93153 5.47773 3.90602 5.59844 3.92543C5.71916 3.94484 5.8285 4.00781 5.90567 4.10237C5.90567 4.10237 6.24357 4.52346 6.38717 4.70032C6.53078 4.87718 6.70818 5.18458 6.80955 5.34881C6.8792 5.46262 6.90716 5.59697 6.88868 5.72901C6.8702 5.86105 6.80642 5.98263 6.70818 6.07309L6.37873 6.32995C6.32843 6.37968 6.28954 6.43969 6.26475 6.50584C6.23996 6.572 6.22985 6.64273 6.23512 6.71315C6.39606 7.25669 6.69047 7.7516 7.09169 8.15307C7.4929 8.55454 7.98823 8.84988 8.53282 9.01233Z" fill="white"/>
</svg>
