<svg width="16" height="16" viewBox="0 0 16 16" fill="none" xmlns="http://www.w3.org/2000/svg">
<path d="M8.02832 1.04346C4.30557 1.04346 1.27532 4.13605 1.27374 7.93711C1.27335 9.15215 1.58447 10.3382 2.17551 11.3835L1.21729 14.9565L4.79791 13.9978C5.78456 14.5471 6.89519 14.8364 8.02556 14.8368H8.02832C11.7507 14.8368 14.7809 11.7438 14.7825 7.94275C14.7833 6.10066 14.0813 4.36858 12.806 3.06569C11.5308 1.7624 9.83502 1.04426 8.02832 1.04346ZM8.02832 13.6726H8.02595C7.01877 13.6726 6.03053 13.3957 5.16864 12.8738L4.96373 12.7497L2.8392 13.3187L3.40617 11.2042L3.27272 10.9874C2.71089 10.075 2.41398 9.02037 2.41438 7.93792C2.41556 4.77843 4.93412 2.20812 8.03069 2.20812C9.53022 2.20852 10.9397 2.80536 11.9994 3.88861C13.0595 4.97146 13.6427 6.41137 13.6423 7.94235C13.6411 11.1018 11.1225 13.6726 8.02832 13.6726ZM11.1075 9.38105C10.9389 9.29481 10.109 8.87811 9.95425 8.82048C9.79948 8.76285 9.68696 8.73424 9.57444 8.90672C9.46191 9.0792 9.13855 9.46729 9.04024 9.58214C8.94193 9.6974 8.84323 9.7115 8.67464 9.62526C8.50605 9.53902 7.96199 9.35687 7.31765 8.77011C6.81583 8.31351 6.47707 7.74932 6.37876 7.57683C6.28045 7.40435 6.3681 7.31126 6.45299 7.22542C6.5288 7.14845 6.62158 7.02433 6.70607 6.92358C6.79056 6.82283 6.81859 6.75109 6.87466 6.63584C6.93072 6.52098 6.90269 6.42023 6.86044 6.33399C6.8182 6.24775 6.48063 5.39985 6.34007 5.05488C6.20307 4.71919 6.06409 4.76432 5.96025 4.75908C5.86194 4.75384 5.74942 4.75304 5.6369 4.75304C5.52437 4.75304 5.34157 4.79616 5.1868 4.96864C5.03203 5.14112 4.59615 5.55782 4.59615 6.40573C4.59615 7.25363 5.20102 8.07292 5.28511 8.18778C5.3696 8.30263 6.4751 10.0428 8.16809 10.7887C8.5708 10.966 8.88508 11.072 9.13026 11.1514C9.53456 11.2824 9.90253 11.2638 10.1931 11.2195C10.5173 11.1699 11.1916 10.8028 11.3322 10.4002C11.4727 9.99804 11.4727 9.65307 11.4305 9.58093C11.3882 9.5092 11.2757 9.46608 11.1071 9.37984L11.1075 9.38105Z" fill="white"/>
</svg>
